# xmcd
#
# Track frame offsets:
#	150
#	20287
#	36157
#	52190
#	69717
#	84245
#	104677
#	122135
#	138340
#	153055
#	169287
#
# Disc length: 2492 seconds
#
# Revision: 33
# Processed by: cddbd v1.5.2PL0 Copyright (c) Steve Scherf et al.
# Submitted via: EasyCDDAExtractor 15.3.0.1
#
DISCID=9209ba0b
DTITLE=Shakira - Donde Estan Los Ladrones
DYEAR=1998
DGENRE=Latin
TTITLE0=Ciega, Sordomuda
TTITLE1=Si Te Vas
TTITLE2=Moscas En La Casa
TTITLE3=No Creo
TTITLE4=Inevitable
TTITLE5=Octavo Dia
TTITLE6=Que Vuelvas
TTITLE7=Tu
TTITLE8=Donde Estan Los Ladrones
TTITLE9=Sombra De Ti
TTITLE10=Ojos Asi
EXTD=
EXTT0=
EXTT1=
EXTT2=
EXTT3=
EXTT4=
EXTT5=
EXTT6=
EXTT7=
EXTT8=
EXTT9=
EXTT10=
PLAYORDER=
